<mxfile host="app.diagrams.net" modified="2021-02-25T10:38:58.129Z" agent="5.0 (X11; Linux x86_64) AppleWebKit/537.36 (KHTML, like Gecko) Chrome/88.0.4324.182 Safari/537.36" etag="Go-v6Xgp4lOy0_ijv47E" version="14.4.3" type="github">
  <diagram id="kgpKYQtTHZ0yAKxKKP6v" name="Page-1">
    <mxGraphModel dx="2223" dy="765" grid="1" gridSize="10" guides="1" tooltips="1" connect="1" arrows="1" fold="1" page="1" pageScale="1" pageWidth="850" pageHeight="1100" math="0" shadow="0">
      <root>
        <mxCell id="0" />
        <mxCell id="1" parent="0" />
        <mxCell id="3nuBFxr9cyL0pnOWT2aG-1" value=":UI" style="shape=umlLifeline;perimeter=lifelinePerimeter;container=1;collapsible=0;recursiveResize=0;rounded=0;shadow=0;strokeWidth=1;fontSize=17;" parent="1" vertex="1">
          <mxGeometry x="120" y="80" width="100" height="670" as="geometry" />
        </mxCell>
        <mxCell id="3nuBFxr9cyL0pnOWT2aG-2" value="" style="points=[];perimeter=orthogonalPerimeter;rounded=0;shadow=0;strokeWidth=1;fontSize=17;" parent="3nuBFxr9cyL0pnOWT2aG-1" vertex="1">
          <mxGeometry x="45" y="80" width="10" height="60" as="geometry" />
        </mxCell>
        <mxCell id="zqFPUgSqFnym1gCIf2Gk-16" value="" style="points=[];perimeter=orthogonalPerimeter;rounded=0;shadow=0;strokeWidth=1;fontSize=17;" vertex="1" parent="3nuBFxr9cyL0pnOWT2aG-1">
          <mxGeometry x="45" y="230" width="10" height="60" as="geometry" />
        </mxCell>
        <mxCell id="zqFPUgSqFnym1gCIf2Gk-17" value="" style="points=[];perimeter=orthogonalPerimeter;rounded=0;shadow=0;strokeWidth=1;fontSize=17;" vertex="1" parent="3nuBFxr9cyL0pnOWT2aG-1">
          <mxGeometry x="45" y="330" width="10" height="60" as="geometry" />
        </mxCell>
        <mxCell id="zqFPUgSqFnym1gCIf2Gk-26" value="" style="points=[];perimeter=orthogonalPerimeter;rounded=0;shadow=0;strokeWidth=1;fontSize=17;" vertex="1" parent="3nuBFxr9cyL0pnOWT2aG-1">
          <mxGeometry x="45" y="560" width="10" height="80" as="geometry" />
        </mxCell>
        <mxCell id="3nuBFxr9cyL0pnOWT2aG-5" value=":Relay Server" style="shape=umlLifeline;perimeter=lifelinePerimeter;container=1;collapsible=0;recursiveResize=0;rounded=0;shadow=0;strokeWidth=1;fontSize=17;" parent="1" vertex="1">
          <mxGeometry x="300" y="80" width="100" height="630" as="geometry" />
        </mxCell>
        <mxCell id="3nuBFxr9cyL0pnOWT2aG-6" value="" style="points=[];perimeter=orthogonalPerimeter;rounded=0;shadow=0;strokeWidth=1;fontSize=17;" parent="3nuBFxr9cyL0pnOWT2aG-5" vertex="1">
          <mxGeometry x="45" y="80" width="10" height="60" as="geometry" />
        </mxCell>
        <mxCell id="zqFPUgSqFnym1gCIf2Gk-14" value="" style="points=[];perimeter=orthogonalPerimeter;rounded=0;shadow=0;strokeWidth=1;fontSize=17;" vertex="1" parent="3nuBFxr9cyL0pnOWT2aG-5">
          <mxGeometry x="45" y="180" width="10" height="60" as="geometry" />
        </mxCell>
        <mxCell id="zqFPUgSqFnym1gCIf2Gk-19" value="" style="points=[];perimeter=orthogonalPerimeter;rounded=0;shadow=0;strokeWidth=1;fontSize=17;" vertex="1" parent="3nuBFxr9cyL0pnOWT2aG-5">
          <mxGeometry x="45" y="390" width="10" height="60" as="geometry" />
        </mxCell>
        <mxCell id="zqFPUgSqFnym1gCIf2Gk-1" value=":Database" style="shape=umlLifeline;perimeter=lifelinePerimeter;container=1;collapsible=0;recursiveResize=0;rounded=0;shadow=0;strokeWidth=1;fontSize=17;" vertex="1" parent="1">
          <mxGeometry x="480" y="80" width="100" height="250" as="geometry" />
        </mxCell>
        <mxCell id="zqFPUgSqFnym1gCIf2Gk-2" value="" style="points=[];perimeter=orthogonalPerimeter;rounded=0;shadow=0;strokeWidth=1;fontSize=17;" vertex="1" parent="zqFPUgSqFnym1gCIf2Gk-1">
          <mxGeometry x="45" y="140" width="10" height="60" as="geometry" />
        </mxCell>
        <mxCell id="zqFPUgSqFnym1gCIf2Gk-3" value=":Model" style="shape=umlLifeline;perimeter=lifelinePerimeter;container=1;collapsible=0;recursiveResize=0;rounded=0;shadow=0;strokeWidth=1;fontSize=17;" vertex="1" parent="1">
          <mxGeometry x="660" y="80" width="100" height="590" as="geometry" />
        </mxCell>
        <mxCell id="zqFPUgSqFnym1gCIf2Gk-22" value="" style="points=[];perimeter=orthogonalPerimeter;rounded=0;shadow=0;strokeWidth=1;fontSize=17;" vertex="1" parent="zqFPUgSqFnym1gCIf2Gk-3">
          <mxGeometry x="45" y="450" width="10" height="60" as="geometry" />
        </mxCell>
        <mxCell id="zqFPUgSqFnym1gCIf2Gk-5" value="Actor" style="shape=umlActor;verticalLabelPosition=bottom;verticalAlign=top;html=1;outlineConnect=0;strokeWidth=1;fontSize=17;" vertex="1" parent="1">
          <mxGeometry x="30" y="140" width="30" height="60" as="geometry" />
        </mxCell>
        <mxCell id="zqFPUgSqFnym1gCIf2Gk-10" value="" style="edgeStyle=orthogonalEdgeStyle;rounded=0;orthogonalLoop=1;jettySize=auto;html=1;fontSize=17;strokeWidth=1;" edge="1" parent="1" source="3nuBFxr9cyL0pnOWT2aG-2">
          <mxGeometry relative="1" as="geometry">
            <mxPoint x="343" y="169" as="targetPoint" />
            <Array as="points">
              <mxPoint x="210" y="169" />
              <mxPoint x="210" y="169" />
            </Array>
          </mxGeometry>
        </mxCell>
        <mxCell id="zqFPUgSqFnym1gCIf2Gk-11" value="" style="edgeStyle=orthogonalEdgeStyle;rounded=0;orthogonalLoop=1;jettySize=auto;html=1;fontSize=17;strokeWidth=1;" edge="1" parent="1">
          <mxGeometry relative="1" as="geometry">
            <mxPoint x="350" y="220" as="sourcePoint" />
            <mxPoint x="520" y="220" as="targetPoint" />
            <Array as="points">
              <mxPoint x="376" y="220" />
              <mxPoint x="376" y="220" />
            </Array>
          </mxGeometry>
        </mxCell>
        <mxCell id="zqFPUgSqFnym1gCIf2Gk-13" value="" style="edgeStyle=orthogonalEdgeStyle;rounded=0;orthogonalLoop=1;jettySize=auto;html=1;fontSize=17;endArrow=none;endFill=0;startArrow=classic;startFill=1;strokeWidth=1;" edge="1" parent="1">
          <mxGeometry relative="1" as="geometry">
            <mxPoint x="360" y="270" as="sourcePoint" />
            <mxPoint x="520" y="270" as="targetPoint" />
            <Array as="points">
              <mxPoint x="376" y="270" />
              <mxPoint x="376" y="270" />
            </Array>
          </mxGeometry>
        </mxCell>
        <mxCell id="zqFPUgSqFnym1gCIf2Gk-15" value="" style="edgeStyle=orthogonalEdgeStyle;rounded=0;orthogonalLoop=1;jettySize=auto;html=1;fontSize=17;endArrow=none;endFill=0;startArrow=classic;startFill=1;strokeWidth=1;" edge="1" parent="1">
          <mxGeometry relative="1" as="geometry">
            <mxPoint x="170" y="310" as="sourcePoint" />
            <mxPoint x="340" y="310" as="targetPoint" />
            <Array as="points">
              <mxPoint x="196" y="310" />
              <mxPoint x="196" y="310" />
            </Array>
          </mxGeometry>
        </mxCell>
        <mxCell id="zqFPUgSqFnym1gCIf2Gk-18" value="" style="edgeStyle=orthogonalEdgeStyle;rounded=0;orthogonalLoop=1;jettySize=auto;html=1;fontSize=17;strokeWidth=1;" edge="1" parent="1">
          <mxGeometry relative="1" as="geometry">
            <mxPoint x="170" y="470" as="sourcePoint" />
            <mxPoint x="340" y="470" as="targetPoint" />
            <Array as="points">
              <mxPoint x="196" y="470" />
              <mxPoint x="196" y="470" />
            </Array>
          </mxGeometry>
        </mxCell>
        <mxCell id="zqFPUgSqFnym1gCIf2Gk-21" value="" style="edgeStyle=orthogonalEdgeStyle;rounded=0;orthogonalLoop=1;jettySize=auto;html=1;fontSize=17;strokeWidth=1;" edge="1" parent="1" target="zqFPUgSqFnym1gCIf2Gk-3">
          <mxGeometry relative="1" as="geometry">
            <mxPoint x="350" y="530" as="sourcePoint" />
            <mxPoint x="520" y="530" as="targetPoint" />
            <Array as="points">
              <mxPoint x="640" y="530" />
              <mxPoint x="640" y="530" />
            </Array>
          </mxGeometry>
        </mxCell>
        <mxCell id="zqFPUgSqFnym1gCIf2Gk-23" value="" style="edgeStyle=orthogonalEdgeStyle;rounded=0;orthogonalLoop=1;jettySize=auto;html=1;fontSize=17;strokeWidth=1;endArrow=none;endFill=0;startArrow=classic;startFill=1;" edge="1" parent="1">
          <mxGeometry relative="1" as="geometry">
            <mxPoint x="350" y="590" as="sourcePoint" />
            <mxPoint x="719.5" y="590" as="targetPoint" />
            <Array as="points">
              <mxPoint x="650" y="590" />
              <mxPoint x="650" y="590" />
            </Array>
          </mxGeometry>
        </mxCell>
        <mxCell id="zqFPUgSqFnym1gCIf2Gk-24" value="" style="points=[];perimeter=orthogonalPerimeter;rounded=0;shadow=0;strokeWidth=1;fontSize=17;" vertex="1" parent="1">
          <mxGeometry x="345" y="590" width="10" height="60" as="geometry" />
        </mxCell>
        <mxCell id="zqFPUgSqFnym1gCIf2Gk-27" value="" style="edgeStyle=orthogonalEdgeStyle;rounded=0;orthogonalLoop=1;jettySize=auto;html=1;fontSize=17;endArrow=none;endFill=0;startArrow=classic;startFill=1;strokeWidth=1;" edge="1" parent="1">
          <mxGeometry relative="1" as="geometry">
            <mxPoint x="175" y="650" as="sourcePoint" />
            <mxPoint x="345" y="650" as="targetPoint" />
            <Array as="points">
              <mxPoint x="201" y="650" />
              <mxPoint x="201" y="650" />
            </Array>
          </mxGeometry>
        </mxCell>
        <mxCell id="zqFPUgSqFnym1gCIf2Gk-29" value="" style="shape=image;html=1;verticalAlign=top;verticalLabelPosition=bottom;labelBackgroundColor=#ffffff;imageAspect=0;aspect=fixed;image=https://cdn1.iconfinder.com/data/icons/feather-2/24/x-circle-128.png;strokeWidth=1;fontSize=15;opacity=80;" vertex="1" parent="1">
          <mxGeometry x="148.5" y="750" width="43" height="43" as="geometry" />
        </mxCell>
        <mxCell id="zqFPUgSqFnym1gCIf2Gk-33" value="" style="shape=image;html=1;verticalAlign=top;verticalLabelPosition=bottom;labelBackgroundColor=#ffffff;imageAspect=0;aspect=fixed;image=https://cdn1.iconfinder.com/data/icons/feather-2/24/x-circle-128.png;strokeWidth=1;fontSize=15;opacity=80;" vertex="1" parent="1">
          <mxGeometry x="688.5" y="670" width="43" height="43" as="geometry" />
        </mxCell>
        <mxCell id="zqFPUgSqFnym1gCIf2Gk-34" value="" style="shape=image;html=1;verticalAlign=top;verticalLabelPosition=bottom;labelBackgroundColor=#ffffff;imageAspect=0;aspect=fixed;image=https://cdn1.iconfinder.com/data/icons/feather-2/24/x-circle-128.png;strokeWidth=1;fontSize=15;opacity=80;" vertex="1" parent="1">
          <mxGeometry x="508.5" y="330" width="43" height="43" as="geometry" />
        </mxCell>
        <mxCell id="zqFPUgSqFnym1gCIf2Gk-35" value="" style="shape=image;html=1;verticalAlign=top;verticalLabelPosition=bottom;labelBackgroundColor=#ffffff;imageAspect=0;aspect=fixed;image=https://cdn1.iconfinder.com/data/icons/feather-2/24/x-circle-128.png;strokeWidth=1;fontSize=15;opacity=80;" vertex="1" parent="1">
          <mxGeometry x="328.5" y="710" width="43" height="43" as="geometry" />
        </mxCell>
        <mxCell id="zqFPUgSqFnym1gCIf2Gk-36" value="&lt;font style=&quot;font-size: 18px&quot;&gt;login()&lt;/font&gt;" style="text;html=1;align=center;verticalAlign=middle;resizable=0;points=[];autosize=1;fontSize=15;" vertex="1" parent="1">
          <mxGeometry x="210" y="140" width="60" height="20" as="geometry" />
        </mxCell>
        <mxCell id="zqFPUgSqFnym1gCIf2Gk-48" value="&lt;font style=&quot;font-size: 18px&quot;&gt;json()&lt;/font&gt;" style="text;html=1;align=center;verticalAlign=middle;resizable=0;points=[];autosize=1;fontSize=15;" vertex="1" parent="1">
          <mxGeometry x="510" y="560" width="60" height="20" as="geometry" />
        </mxCell>
        <mxCell id="zqFPUgSqFnym1gCIf2Gk-49" value="&lt;font style=&quot;font-size: 18px&quot;&gt;websocket()&lt;/font&gt;" style="text;html=1;align=center;verticalAlign=middle;resizable=0;points=[];autosize=1;fontSize=15;" vertex="1" parent="1">
          <mxGeometry x="185" y="440" width="110" height="20" as="geometry" />
        </mxCell>
        <mxCell id="zqFPUgSqFnym1gCIf2Gk-50" value="&lt;font style=&quot;font-size: 18px&quot;&gt;ack()&lt;/font&gt;" style="text;html=1;align=center;verticalAlign=middle;resizable=0;points=[];autosize=1;fontSize=15;" vertex="1" parent="1">
          <mxGeometry x="220" y="280" width="60" height="20" as="geometry" />
        </mxCell>
        <mxCell id="zqFPUgSqFnym1gCIf2Gk-51" value="&lt;font style=&quot;font-size: 18px&quot;&gt;verify()&lt;/font&gt;" style="text;html=1;align=center;verticalAlign=middle;resizable=0;points=[];autosize=1;fontSize=15;" vertex="1" parent="1">
          <mxGeometry x="405" y="250" width="70" height="20" as="geometry" />
        </mxCell>
        <mxCell id="zqFPUgSqFnym1gCIf2Gk-54" value="&lt;font style=&quot;font-size: 18px&quot;&gt;select_person()&lt;/font&gt;" style="text;html=1;align=left;verticalAlign=middle;resizable=0;points=[];autosize=1;fontSize=15;" vertex="1" parent="1">
          <mxGeometry x="30" y="700" width="140" height="20" as="geometry" />
        </mxCell>
        <mxCell id="zqFPUgSqFnym1gCIf2Gk-55" value="&lt;font style=&quot;font-size: 18px&quot;&gt;show_bounding_box()&lt;/font&gt;" style="text;html=1;align=left;verticalAlign=middle;resizable=0;points=[];autosize=1;fontSize=15;" vertex="1" parent="1">
          <mxGeometry x="-20" y="673" width="190" height="20" as="geometry" />
        </mxCell>
        <mxCell id="zqFPUgSqFnym1gCIf2Gk-56" value="&lt;font style=&quot;font-size: 18px&quot;&gt;render()&lt;/font&gt;" style="text;html=1;align=center;verticalAlign=middle;resizable=0;points=[];autosize=1;fontSize=15;" vertex="1" parent="1">
          <mxGeometry x="80" y="650" width="80" height="20" as="geometry" />
        </mxCell>
        <mxCell id="zqFPUgSqFnym1gCIf2Gk-52" value="&lt;font style=&quot;font-size: 18px&quot;&gt;check()&lt;/font&gt;" style="text;html=1;align=center;verticalAlign=middle;resizable=0;points=[];autosize=1;fontSize=15;" vertex="1" parent="1">
          <mxGeometry x="400" y="190" width="70" height="20" as="geometry" />
        </mxCell>
        <mxCell id="zqFPUgSqFnym1gCIf2Gk-57" value="&lt;font style=&quot;font-size: 18px&quot;&gt;websocket()&lt;/font&gt;" style="text;html=1;align=center;verticalAlign=middle;resizable=0;points=[];autosize=1;fontSize=15;" vertex="1" parent="1">
          <mxGeometry x="475" y="500" width="110" height="20" as="geometry" />
        </mxCell>
        <mxCell id="zqFPUgSqFnym1gCIf2Gk-58" value="&lt;font style=&quot;font-size: 18px&quot;&gt;websocket()&lt;/font&gt;" style="text;html=1;align=center;verticalAlign=middle;resizable=0;points=[];autosize=1;fontSize=15;" vertex="1" parent="1">
          <mxGeometry x="210" y="620" width="110" height="20" as="geometry" />
        </mxCell>
      </root>
    </mxGraphModel>
  </diagram>
</mxfile>
